# Blender v2.91.0 OBJ File: 'diamond.blend'
# www.blender.org
mtllib diamond.mtl
o Cylinder
v -0.000000 -0.843623 -0.000000
v -0.000000 0.881955 0.000000
v -0.000000 -0.570772 -0.248422
v -0.299122 0.881955 -0.722145
v 0.175661 -0.570772 -0.175661
v 0.299122 0.881955 -0.722145
v 0.248422 -0.570772 0.000000
v 0.722145 0.881955 -0.299122
v 0.175661 -0.570772 0.175661
v 0.722145 0.881955 0.299122
v -0.000000 -0.570772 0.248422
v 0.299122 0.881955 0.722145
v -0.175661 -0.570772 0.175661
v -0.299122 0.881955 0.722144
v -0.248422 -0.570772 -0.000000
v -0.722145 0.881955 0.299122
v -0.175661 -0.570772 -0.175661
v -0.722145 0.881955 -0.299122
v 0.000000 0.503665 -1.072752
v 0.758550 0.503665 -0.758550
v 1.072752 0.503665 0.000000
v 0.758550 0.503665 0.758550
v -0.000000 0.503665 1.072752
v -0.758550 0.503665 0.758550
v -1.072752 0.503665 -0.000000
v -0.758550 0.503665 -0.758550
v 0.000000 0.762195 -1.000000
v 0.707107 0.762195 -0.707107
v 1.000000 0.762195 0.000000
v 0.707107 0.762195 0.707107
v -0.000000 0.762195 1.000000
v -0.707107 0.762195 0.707107
v -1.000000 0.762195 -0.000000
v -0.707107 0.762195 -0.707107
v 0.758550 0.483234 -0.758550
v 1.072752 0.483234 0.000000
v 0.758550 0.483234 0.758550
v -0.000000 0.483234 1.072752
v -0.758550 0.483234 0.758550
v -1.072752 0.483234 -0.000000
v -0.758550 0.483234 -0.758550
v 0.000000 0.483234 -1.072752
v -0.437911 0.513984 -1.057211
v -1.057211 0.513984 -0.437911
v -1.057211 0.513984 0.437911
v -0.437911 0.513984 1.057211
v 0.437911 0.513984 1.057211
v 1.057211 0.513984 0.437911
v 1.057211 0.513984 -0.437911
v 0.437911 0.513984 -1.057211
v 0.437911 0.472915 -1.057211
v 1.057211 0.472915 -0.437911
v 1.057211 0.472915 0.437911
v 0.437911 0.472915 1.057211
v -0.437911 0.472915 1.057211
v -1.057211 0.472915 0.437911
v -1.057211 0.472915 -0.437911
v -0.437911 0.472915 -1.057211
vt 0.750000 0.250000
vt 0.750000 0.490000
vt 0.919706 0.419706
vt 0.250000 0.250000
vt 0.419706 0.419706
vt 0.250000 0.490000
vt 1.000000 0.875000
vt 0.875000 1.000000
vt 0.875000 0.875000
vt 0.990000 0.250000
vt 0.490000 0.250000
vt 0.750000 1.000000
vt 0.750000 0.875000
vt 0.919706 0.080294
vt 0.419706 0.080294
vt 0.625000 1.000000
vt 0.625000 0.875000
vt 0.750000 0.010000
vt 0.250000 0.010000
vt 0.500000 1.000000
vt 0.500000 0.875000
vt 0.580294 0.080294
vt 0.080294 0.080294
vt 0.375000 1.000000
vt 0.375000 0.875000
vt 0.510000 0.250000
vt 0.010000 0.250000
vt 0.250000 1.000000
vt 0.250000 0.875000
vt 0.580294 0.419706
vt 0.080294 0.419706
vt 0.125000 1.000000
vt 0.125000 0.875000
vt 0.000000 1.000000
vt 0.000000 0.875000
vt 0.062500 0.625000
vt 0.062500 0.750000
vt 0.000000 0.750000
vt 0.000000 0.625000
vt 0.187500 0.625000
vt 0.187500 0.750000
vt 0.125000 0.750000
vt 0.125000 0.625000
vt 0.312500 0.625000
vt 0.312500 0.750000
vt 0.250000 0.750000
vt 0.250000 0.625000
vt 0.437500 0.625000
vt 0.437500 0.750000
vt 0.375000 0.750000
vt 0.375000 0.625000
vt 0.562500 0.625000
vt 0.562500 0.750000
vt 0.500000 0.750000
vt 0.500000 0.625000
vt 0.687500 0.625000
vt 0.687500 0.750000
vt 0.625000 0.750000
vt 0.625000 0.625000
vt 0.812500 0.625000
vt 0.812500 0.750000
vt 0.750000 0.750000
vt 0.750000 0.625000
vt 0.937500 0.625000
vt 0.937500 0.750000
vt 0.875000 0.750000
vt 0.875000 0.625000
vt 0.875000 0.500000
vt 0.750000 0.500000
vt 0.625000 0.500000
vt 0.500000 0.500000
vt 0.375000 0.500000
vt 0.250000 0.500000
vt 0.125000 0.500000
vt 0.000000 0.500000
vt 1.000000 0.625000
vt 1.000000 0.750000
vt 1.000000 0.500000
vt 1.000000 1.000000
vn 0.2929 -0.6437 -0.7070
vn 0.0000 1.0000 0.0000
vn 0.2465 0.7650 -0.5951
vn 0.7070 -0.6437 -0.2929
vn 0.5951 0.7650 -0.2465
vn 0.7070 -0.6437 0.2929
vn 0.5951 0.7650 0.2465
vn 0.2929 -0.6437 0.7070
vn 0.2465 0.7650 0.5951
vn -0.2929 -0.6437 0.7070
vn -0.2465 0.7650 0.5951
vn -0.7070 -0.6437 0.2929
vn -0.5951 0.7650 0.2465
vn -0.7070 -0.6437 -0.2929
vn -0.5951 0.7650 -0.2465
vn -0.2929 -0.6437 -0.7070
vn -0.2465 0.7650 -0.5951
vn -0.0355 0.0000 -0.9994
vn -0.7317 0.0000 -0.6816
vn -0.9994 0.0000 0.0355
vn -0.6816 0.0000 0.7317
vn 0.0355 0.0000 0.9994
vn 0.7317 0.0000 0.6816
vn 0.9994 0.0000 -0.0355
vn 0.6816 0.0000 -0.7317
vn -0.0278 0.2708 -0.9622
vn -0.7000 0.2708 -0.6608
vn -0.9622 0.2708 0.0278
vn -0.6608 0.2708 0.7000
vn 0.0278 0.2708 0.9622
vn 0.7000 0.2708 0.6608
vn 0.9622 0.2708 -0.0278
vn 0.6608 0.2708 -0.7000
vn 0.5474 -0.6160 -0.5664
vn 0.7876 -0.6160 -0.0134
vn 0.5664 -0.6160 0.5474
vn 0.0134 -0.6160 0.7876
vn -0.5474 -0.6160 0.5664
vn -0.7876 -0.6160 0.0134
vn -0.5664 -0.6160 -0.5474
vn -0.0134 -0.6160 -0.7876
vn 0.0355 0.0000 -0.9994
vn 0.7317 0.0000 -0.6816
vn 0.9994 0.0000 0.0355
vn 0.6816 0.0000 0.7317
vn -0.0355 0.0000 0.9994
vn -0.7317 0.0000 0.6816
vn -0.9994 0.0000 -0.0355
vn -0.6816 0.0000 -0.7317
vn -0.7000 0.2708 0.6608
vn -0.6908 0.6640 0.2861
vn -0.0278 0.2708 0.9622
vn -0.2861 0.6640 0.6908
vn 0.6608 0.2708 0.7000
vn 0.2861 0.6640 0.6908
vn 0.9622 0.2708 0.0278
vn 0.6908 0.6640 0.2861
vn 0.6948 -0.6591 0.2878
vn 0.7876 -0.6160 0.0134
vn 0.2878 -0.6591 0.6948
vn 0.5474 -0.6160 0.5664
vn -0.2878 -0.6591 0.6948
vn -0.0134 -0.6160 0.7876
vn -0.6948 -0.6591 0.2878
vn -0.5664 -0.6160 0.5474
vn -0.6608 0.2708 -0.7000
vn -0.2861 0.6640 -0.6908
vn -0.9622 0.2708 -0.0278
vn -0.6908 0.6640 -0.2861
vn 0.7000 0.2708 -0.6608
vn 0.6908 0.6640 -0.2861
vn 0.0278 0.2708 -0.9622
vn 0.2861 0.6640 -0.6908
vn 0.2878 -0.6591 -0.6948
vn 0.0134 -0.6160 -0.7876
vn 0.6948 -0.6591 -0.2878
vn 0.5664 -0.6160 -0.5474
vn -0.6948 -0.6591 -0.2878
vn -0.7876 -0.6160 -0.0134
vn -0.2878 -0.6591 -0.6948
vn -0.5474 -0.6160 -0.5664
vn 0.0000 0.9183 -0.3958
vn 0.2799 0.9183 -0.2799
vn 0.3958 0.9183 0.0000
vn 0.2799 0.9183 0.2799
vn -0.0000 0.9183 0.3958
vn -0.2799 0.9183 0.2799
vn -0.3958 0.9183 0.0000
vn -0.2799 0.9183 -0.2799
usemtl None
s off
f 1/1/1 3/2/1 5/3/1
f 2/4/2 6/5/2 4/6/2
f 27/7/3 6/8/3 28/9/3
f 1/1/4 5/3/4 7/10/4
f 2/4/2 8/11/2 6/5/2
f 28/9/5 8/12/5 29/13/5
f 1/1/6 7/10/6 9/14/6
f 2/4/2 10/15/2 8/11/2
f 29/13/7 10/16/7 30/17/7
f 1/1/8 9/14/8 11/18/8
f 2/4/2 12/19/2 10/15/2
f 30/17/9 12/20/9 31/21/9
f 1/1/10 11/18/10 13/22/10
f 2/4/2 14/23/2 12/19/2
f 31/21/11 14/24/11 32/25/11
f 1/1/12 13/22/12 15/26/12
f 2/4/2 16/27/2 14/23/2
f 32/25/13 16/28/13 33/29/13
f 1/1/14 15/26/14 17/30/14
f 2/4/2 18/31/2 16/27/2
f 33/29/15 18/32/15 34/33/15
f 1/1/16 17/30/16 3/2/16
f 2/4/2 4/6/2 18/31/2
f 34/33/17 4/34/17 27/35/17
f 58/36/18 43/37/18 19/38/18 42/39/18
f 57/40/19 44/41/19 26/42/19 41/43/19
f 56/44/20 45/45/20 25/46/20 40/47/20
f 55/48/21 46/49/21 24/50/21 39/51/21
f 54/52/22 47/53/22 23/54/22 38/55/22
f 53/56/23 48/57/23 22/58/23 37/59/23
f 52/60/24 49/61/24 21/62/24 36/63/24
f 51/64/25 50/65/25 20/66/25 35/67/25
f 27/35/26 19/38/26 43/37/26
f 34/33/27 26/42/27 44/41/27
f 33/29/28 25/46/28 45/45/28
f 32/25/29 24/50/29 46/49/29
f 31/21/30 23/54/30 47/53/30
f 30/17/31 22/58/31 48/57/31
f 29/13/32 21/62/32 49/61/32
f 28/9/33 20/66/33 50/65/33
f 51/64/34 35/67/34 5/68/34
f 52/60/35 36/63/35 7/69/35
f 53/56/36 37/59/36 9/70/36
f 54/52/37 38/55/37 11/71/37
f 55/48/38 39/51/38 13/72/38
f 56/44/39 40/47/39 15/73/39
f 57/40/40 41/43/40 17/74/40
f 58/36/41 42/39/41 3/75/41
f 42/76/42 19/77/42 50/65/42 51/64/42
f 35/67/43 20/66/43 49/61/43 52/60/43
f 36/63/44 21/62/44 48/57/44 53/56/44
f 37/59/45 22/58/45 47/53/45 54/52/45
f 38/55/46 23/54/46 46/49/46 55/48/46
f 39/51/47 24/50/47 45/45/47 56/44/47
f 40/47/48 25/46/48 44/41/48 57/40/48
f 41/43/49 26/42/49 43/37/49 58/36/49
f 45/45/50 24/50/50 32/25/50
f 32/25/51 33/29/51 45/45/51
f 46/49/52 23/54/52 31/21/52
f 31/21/53 32/25/53 46/49/53
f 47/53/54 22/58/54 30/17/54
f 30/17/55 31/21/55 47/53/55
f 48/57/56 21/62/56 29/13/56
f 29/13/57 30/17/57 48/57/57
f 9/70/58 7/69/58 53/56/58
f 7/69/59 36/63/59 53/56/59
f 11/71/60 9/70/60 54/52/60
f 9/70/61 37/59/61 54/52/61
f 13/72/62 11/71/62 55/48/62
f 11/71/63 38/55/63 55/48/63
f 15/73/64 13/72/64 56/44/64
f 13/72/65 39/51/65 56/44/65
f 43/37/66 26/42/66 34/33/66
f 34/33/67 27/35/67 43/37/67
f 44/41/68 25/46/68 33/29/68
f 33/29/69 34/33/69 44/41/69
f 49/61/70 20/66/70 28/9/70
f 28/9/71 29/13/71 49/61/71
f 50/65/72 19/77/72 27/7/72
f 27/7/73 28/9/73 50/65/73
f 5/68/74 3/78/74 51/64/74
f 3/78/75 42/76/75 51/64/75
f 7/69/76 5/68/76 52/60/76
f 5/68/77 35/67/77 52/60/77
f 17/74/78 15/73/78 57/40/78
f 15/73/79 40/47/79 57/40/79
f 3/75/80 17/74/80 58/36/80
f 17/74/81 41/43/81 58/36/81
f 27/7/82 4/79/82 6/8/82
f 28/9/83 6/8/83 8/12/83
f 29/13/84 8/12/84 10/16/84
f 30/17/85 10/16/85 12/20/85
f 31/21/86 12/20/86 14/24/86
f 32/25/87 14/24/87 16/28/87
f 33/29/88 16/28/88 18/32/88
f 34/33/89 18/32/89 4/34/89
